<?xml version="1.0" encoding="UTF-8" standalone="no"?>

<!--
  $Id$
 
  Copyright 2007 Sun Microsystems, Inc. All rights reserved.
  SUN PROPRIETARY/CONFIDENTIAL. Use is subject to license terms.
-->

<!-- Created with Inkscape (http://www.inkscape.org/) -->
<svg
   xmlns:dc="http://purl.org/dc/elements/1.1/"
   xmlns:cc="http://web.resource.org/cc/"
   xmlns:rdf="http://www.w3.org/1999/02/22-rdf-syntax-ns#"
   xmlns:svg="http://www.w3.org/2000/svg"
   xmlns="http://www.w3.org/2000/svg"
   xmlns:xlink="http://www.w3.org/1999/xlink"
   xmlns:sodipodi="http://inkscape.sourceforge.net/DTD/sodipodi-0.dtd"
   xmlns:inkscape="http://www.inkscape.org/namespaces/inkscape"
   width="48px"
   height="48px"
   id="svg1307"
   sodipodi:version="0.32"
   inkscape:version="0.43"
   sodipodi:docbase="/home/anita/Desktop/svg-icons"
   sodipodi:docname="mail.svg"
   inkscape:export-filename="/home/anita/Desktop/svg-icons/mail.png"
   inkscape:export-xdpi="240"
   inkscape:export-ydpi="240">
  <defs
     id="defs1309">
    <linearGradient
       id="linearGradient6631">
      <stop
         style="stop-color:#ffffff;stop-opacity:1;"
         offset="0"
         id="stop6633" />
      <stop
         style="stop-color:#efefef;stop-opacity:1;"
         offset="1"
         id="stop6635" />
    </linearGradient>
    <linearGradient
       inkscape:collect="always"
       xlink:href="#linearGradient6631"
       id="linearGradient6637"
       x1="23.714285"
       y1="11.428572"
       x2="23.999977"
       y2="31"
       gradientUnits="userSpaceOnUse" />
    <linearGradient
       inkscape:collect="always"
       xlink:href="#linearGradient6631"
       id="linearGradient6647"
       x1="25"
       y1="10.142858"
       x2="25"
       y2="36"
       gradientUnits="userSpaceOnUse" />
  </defs>
  <sodipodi:namedview
     id="base"
     pagecolor="#ffffff"
     bordercolor="#666666"
     borderopacity="1.0"
     inkscape:pageopacity="0.0"
     inkscape:pageshadow="2"
     inkscape:zoom="7"
     inkscape:cx="37.167278"
     inkscape:cy="24.261312"
     inkscape:current-layer="layer1"
     showgrid="true"
     inkscape:grid-bbox="true"
     inkscape:document-units="px"
     inkscape:window-width="890"
     inkscape:window-height="555"
     inkscape:window-x="3"
     inkscape:window-y="65" />
  <metadata
     id="metadata1312">
    <rdf:RDF>
      <cc:Work
         rdf:about="">
        <dc:format>image/svg+xml</dc:format>
        <dc:type
           rdf:resource="http://purl.org/dc/dcmitype/StillImage" />
      </cc:Work>
    </rdf:RDF>
  </metadata>
  <g
     id="layer1"
     inkscape:label="Layer 1"
     inkscape:groupmode="layer">
    <g
       id="g6651">
      <path
         id="path6619"
         d="M 45.996,15.6875 L 26.433499,31.1875 C 25.786635,31.700251 24.92868,31.975187 24.089749,31.96875 C 23.250819,31.962313 22.416048,31.678865 21.777249,31.15625 L 1.996,15 L 1.996,34 C 1.996,35.662 3.3340001,37 4.996,37 L 42.996,37 C 44.658,37 45.996,35.662 45.996,34 L 45.996,15.6875 z "
         style="opacity:1;fill:url(#linearGradient6647);fill-opacity:1.0;fill-rule:nonzero;stroke:#c2c2c2;stroke-width:1;stroke-linecap:butt;stroke-linejoin:miter;stroke-miterlimit:4;stroke-dasharray:none;stroke-opacity:1" />
      <path
         style="opacity:1;fill:#ffffff;fill-opacity:0;fill-rule:nonzero;stroke:#c2c2c2;stroke-width:1;stroke-linecap:butt;stroke-linejoin:miter;stroke-miterlimit:4;stroke-dasharray:none;stroke-opacity:1"
         d="M 2,34.13125 C 1.9998945,34.120827 2,34.110449 2,34.1 L 21.78125,17.94375 C 22.420048,17.421135 23.25482,17.137687 24.09375,17.13125 C 24.93268,17.124813 25.790636,17.399749 26.4375,17.9125 L 46,33.4125 L 46,34.1 C 46,35.762 44.662,37.1 43,37.1 L 5,37.1 C 3.3484488,37.1 2.0166784,35.778713 2,34.13125 z "
         id="path6621" />
      <path
         id="rect1318"
         d="M 2 14.96875 C 1.9998945 14.979173 2 14.989551 2 15 L 21.78125 31.15625 C 22.420048 31.678865 23.25482 31.962313 24.09375 31.96875 C 24.93268 31.975187 25.790636 31.700251 26.4375 31.1875 L 46 15.6875 L 46 15 C 46 13.338 44.662 12 43 12 L 5 12 C 3.3484488 12 2.0166784 13.321287 2 14.96875 z "
         style="fill:url(#linearGradient6637);fill-opacity:1.0;fill-rule:nonzero;stroke:#c2c2c2;stroke-width:1;stroke-linecap:butt;stroke-linejoin:miter;stroke-opacity:1;stroke-miterlimit:4;stroke-dasharray:none;opacity:1" />
    </g>
  </g>
</svg>
