<?xml version="1.0" standalone="no"?>

<!--
  $Id$
 
  Copyright 2007 Sun Microsystems, Inc. All rights reserved.
  SUN PROPRIETARY/CONFIDENTIAL. Use is subject to license terms.
-->

<!DOCTYPE svg PUBLIC "-//W3C//DTD SVG 20010904//EN"
"http://www.w3.org/TR/2001/REC-SVG-20010904/DTD/svg10.dtd"
[
 <!ATTLIST svg
  xmlns:xlink CDATA #FIXED "http://www.w3.org/1999/xlink">
]>
<!-- Created with Sodipodi ("http://www.sodipodi.com/") -->
<svg
   xmlns="http://www.w3.org/2000/svg"
   xmlns:xlink="http://www.w3.org/1999/xlink"
   width="744.094"
   height="744.094"
   id="svg1">
  <defs
     id="defs3" />
  <g
     transform="matrix(0.974111,0,0,0.974111,3.54804,-300.225)"
     style="font-size:12;"
     id="g125">
    <path
       d="M 229.193 831.649 C 255.203 851.941 269.752 860.32 278.843 861.019 C 287.934 861.719 301.919 853.327 321.499 837.243 C 341.079 821.159 350.17 813.467 357.862 800.88 C 365.555 788.293 371.06 774.955 378.853 754.14 C 387.045 731.123 386.614 717.397 384.023 662.695 C 382.964 640.496 386.54 551.249 284.437 550.533 C 184.438 549.831 177.529 627.564 173.949 650.532 C 168.558 685.125 172.246 717.134 173.949 732.699 C 176.56 756.555 183.224 780.359 193.529 795.985 C 204.1 812.014 211.198 817.61 229.193 831.649 z "
       style="fill:#ffe9d1;fill-rule:evenodd;stroke-width:1.25;"
       id="path167" />
    <path
       d="M 229.193 831.649 C 255.203 851.941 269.752 860.32 278.843 861.019 C 287.934 861.719 301.919 853.327 321.499 837.243 C 341.079 821.159 350.17 813.467 357.862 800.88 C 365.555 788.293 372.243 768.74 381.541 747.996 C 386.323 737.525 385.846 686.293 383.639 660.391 C 381.724 638.25 386.54 551.249 284.437 550.533 C 184.438 549.831 177.529 627.564 173.949 650.532 C 168.558 685.125 172.246 717.134 173.949 732.699 C 176.56 756.555 183.224 780.359 193.529 795.985 C 204.1 812.014 211.198 817.61 229.193 831.649 z M 230.505 831.649 C 256.515 851.941 269.752 858.353 278.843 859.052 C 287.934 859.752 298.032 850.259 315.597 831.997 C 325.997 820.503 336.026 801.176 343.435 788.421 C 351.128 774.521 356.737 752.031 349.155 740.523 C 347.042 737.133 369.226 728.595 367.222 718.427 C 364.106 701.957 345.991 699.687 337.493 699.55 C 309.23 699.103 315.233 717.016 297.418 709.89 C 285.35 704.619 299.538 695.869 303.244 683.681 C 308.317 667.655 307.066 648.485 296.169 646.508 C 290.654 645.84 287.277 651.274 278.618 650.964 C 266.149 650.549 264.169 632.908 257.087 644.902 C 249.204 657.142 257.327 679.686 261.016 693.356 C 264.303 707.969 258.489 711.03 256.24 711.848 C 238.972 717.894 254.908 697.73 215.917 697.09 C 180.911 696.507 187.984 714.511 189.687 730.076 C 192.298 753.932 168.87 748.258 193.216 795.111 C 200.112 809.223 212.51 817.61 230.505 831.649 z "
       style="fill:#e6c8ad;fill-rule:evenodd;stroke-width:0.125;"
       id="path62" />
    <path
       d="M 254.347 688.085 C 235.363 683.022 226.504 683.022 217.222 683.022 C 207.941 683.022 191.91 684.288 179.675 686.397 C 200.347 687.241 207.941 686.819 218.91 686.819 C 229.878 686.819 249.707 689.772 254.347 688.085 z "
       style="fill:#665232;fill-rule:evenodd;stroke-width:1pt;"
       id="path166" />
    <path
       d="M 299.91 689.35 C 319.316 682.178 327.332 683.022 339.566 683.022 C 351.8 683.022 363.191 684.71 376.691 686.819 C 351.378 687.663 343.785 687.663 332.816 687.663 C 321.847 687.663 305.816 690.616 299.91 689.35 z "
       style="fill:#665232;fill-rule:evenodd;stroke-width:1pt;"
       id="path165" />
    <path
       d="M 283.181 733.8 C 285.712 732.113 288.665 730.004 290.353 735.91 C 292.04 741.816 293.728 751.097 297.103 754.894 C 300.478 758.691 303.431 759.113 301.743 764.597 C 300.056 770.082 294.993 775.144 292.04 777.254 C 289.087 779.363 284.868 770.504 283.603 760.8 C 282.337 751.097 282.759 735.066 283.181 733.8 z "
       style="fill:#e6c8ad;fill-rule:evenodd;stroke-width:1pt;"
       id="path115" />
    <path
       d="M 370.911 774.009 C 380.614 772.743 384.442 769.321 389.927 763.415 C 395.411 757.509 398.786 752.025 401.739 743.587 C 404.692 735.15 406.802 718.696 402.161 711.946 C 397.52 705.196 391.614 700.134 386.13 696.337 C 385.708 722.493 386.52 739.837 370.911 774.009 z "
       style="fill:#d9b696;fill-rule:evenodd;stroke-width:1pt;"
       id="path425" />
    <path
       d="M 188.222 786.011 C 164.572 779.254 164.572 766.047 159.351 751.919 C 154.129 737.791 150.136 705.234 171.636 701.855 C 173.479 742.09 179.315 770.04 188.222 786.011 z "
       style="fill:#d9b696;fill-rule:evenodd;stroke-width:0.125;"
       id="path170" />
    <path
       d="M 279.852 632.474 C 299.83 619.156 304.068 622.788 313.754 623.393 C 323.44 623.999 349.472 627.026 370.055 628.842 C 349.472 571.33 318.597 563.46 278.642 563.46 C 238.686 563.46 207.206 587.07 192.071 624.604 C 238.686 621.577 248.372 620.972 256.242 622.182 C 264.112 623.393 272.588 627.631 279.852 632.474 z "
       style="fill:#5b4d29;fill-rule:evenodd;stroke-width:1pt;"
       id="path97" />
    <path
       d="M 377.208 758.806 C 386.911 750.79 394.567 744.431 394.567 737.259 C 394.567 730.087 393.302 721.65 386.13 717.009 "
       style="fill:none;fill-rule:evenodd;stroke:#7f5f3f;stroke-width:1pt;"
       id="path426" />
    <path
       d="M 273.782 523.702 C 299.126 508.342 314.23 504.758 333.174 508.854 C 352.118 512.95 373.878 519.35 394.102 545.206 C 414.326 571.062 417.398 588.726 421.238 599.222 C 425.078 609.718 437.366 644.534 437.878 650.166 C 438.39 655.798 448.63 669.366 457.846 687.03 C 467.062 704.694 473.974 719.03 477.046 735.414 C 459.126 712.118 441.522 689.501 431.794 679.773 C 440.575 706.26 448.118 729.014 448.886 737.718 C 438.39 716.726 435.318 712.63 432.502 705.974 C 432.758 711.35 432.502 714.166 432.758 717.75 C 455.286 732.086 463.99 738.742 496.246 747.446 C 528.502 756.15 568.182 790.454 586.358 809.142 C 604.534 827.83 611.958 841.91 618.87 846.518 C 625.782 851.126 670.838 891.574 746.102 898.486 C 746.102 914.87 746.358 928.438 746.102 938.166 C 701.558 931.51 674.166 914.87 655.478 902.838 C 681.846 932.534 700.534 956.086 746.102 973.238 C 746.358 982.71 745.59 1041.85 745.846 1051.57 C 731.766 1051.32 87.4145 1052.34 61.0465 1052.34 C 58.7425 999.349 69.7505 957.366 75.3825 945.334 C 81.0145 933.302 93.0465 916.918 99.4465 906.422 C 87.1585 890.806 80.5025 878.774 80.2465 852.15 C 79.9905 825.526 81.7825 794.038 96.1185 771.254 C 110.454 748.47 112.758 742.838 116.342 737.206 C 113.782 725.174 105.846 700.854 108.918 666.294 C 111.99 631.734 117.622 613.558 130.678 595.126 C 143.734 576.694 169.334 541.878 190.326 525.75 C 211.318 509.622 221.046 503.99 233.078 505.014 C 245.11 506.038 257.398 511.158 273.782 523.702 z M 279.926 628.134 C 285.115 610.226 292.073 594.938 295.409 594.775 C 301.764 594.495 300.849 616.976 302.385 625.334 C 303.859 630.672 314.742 668.086 318.07 693.686 C 317.558 660.918 315.51 636.342 315.51 623.798 C 322.166 649.91 325.494 665.782 326.518 689.334 C 329.59 677.302 329.846 674.23 330.614 668.086 C 335.222 679.606 339.062 688.054 346.742 698.55 C 340.598 675.51 335.99 662.71 335.734 647.094 C 350.582 674.998 380.79 714.71 386.678 731.606 C 393.316 744.627 394.465 744.442 397.281 752.378 C 386.904 766.172 383.862 772.054 372.086 774.358 C 359.03 799.702 356.726 807.382 331.638 829.654 C 306.55 851.926 289.398 860.886 280.694 861.142 C 271.99 861.398 246.134 844.758 228.214 830.934 C 210.294 817.11 195.702 802.006 187.766 785.878 C 179.318 784.854 171.382 778.966 166.262 770.518 C 174.198 774.614 177.526 777.43 180.342 779.222 C 177.27 774.358 176.502 772.822 174.71 770.518 C 180.342 774.87 182.902 777.174 187.254 782.294 C 183.67 772.822 182.39 768.982 179.062 762.07 C 188.534 771.542 194.934 776.662 203.894 781.27 C 194.166 770.774 187.51 765.398 181.366 749.27 C 189.046 755.67 192.374 758.486 199.798 763.606 C 189.814 750.806 181.366 741.078 182.39 730.326 C 183.414 719.574 197.238 685.526 203.382 674.774 C 209.526 664.022 210.038 662.998 212.342 659.158 C 212.342 673.494 212.086 691.67 212.342 702.166 C 217.206 682.71 217.206 666.07 222.838 652.246 C 228.47 638.422 230.774 634.582 234.614 627.926 C 234.358 644.566 234.358 669.91 237.942 692.95 C 239.99 664.022 241.782 639.19 245.11 629.718 C 248.438 653.526 254.07 675.798 258.422 691.158 C 259.446 670.422 259.446 659.414 259.446 649.43 C 265.334 662.486 269.174 671.958 272.246 680.918 C 270.198 663.254 264.822 648.406 263.286 639.19 C 261.75 629.974 260.633 592.862 264.473 593.63 C 271.34 595.609 275.249 608.81 279.926 628.134 z "
       style="fill:#876d3a;fill-rule:evenodd;stroke-width:1.25;"
       id="path49" />
    <path
       d="M 122.494 798.604 L 122.494 798.604 C 120.958 838.532 122.187 855.118 114.508 874.468 C 106.83 893.817 93.0085 915.624 91.78 926.374 C 110.823 897.503 121.265 874.775 125.258 850.203 C 129.251 825.632 126.487 827.475 126.794 819.797 C 124.644 809.354 125.258 809.047 122.494 798.604 z "
       style="fill:#d7aa51;fill-rule:evenodd;stroke:#8f602d;stroke-width:1pt;"
       id="path175" />
    <path
       d="M 125.872 848.668 C 127.715 882.146 121.88 895.66 117.887 906.717 C 113.894 917.774 109.594 925.145 108.673 937.738 C 96.0799 942.96 86.2515 947.567 77.6516 950.638 C 83.4872 935.895 95.4656 923.303 106.523 902.417 C 117.58 881.532 122.187 865.56 125.872 848.668 z "
       style="fill:#d7aa51;fill-rule:evenodd;stroke:#8f602d;stroke-width:1pt;"
       id="path176" />
    <path
       d="M 164.572 766.662 C 169.486 809.968 167.951 824.404 173.172 841.296 C 178.393 858.189 182.386 865.253 182.386 906.41 C 199.893 899.653 197.129 898.424 217.707 902.417 C 222.928 897.503 226.614 894.739 231.836 889.824 C 230.914 867.71 229.071 846.518 227.843 830.854 C 203.043 810.615 197.686 806.243 188.232 786.136 C 169.19 780.608 168.565 772.497 164.572 766.662 z "
       style="fill:#5b4d29;fill-rule:evenodd;stroke:#4f2f1a;stroke-width:1pt;"
       id="path171" />
    <path
       d="M 227.43 830.39 C 230.24 868.798 231.176 880.288 231.739 889.283 C 223.433 897.152 213.628 906.332 207.071 913.327 C 211.005 943.491 217.125 967.973 223.683 986.334 C 234.612 985.897 239.421 986.334 246.853 992.891 C 254.285 999.449 260.842 1001.63 278.766 1000.32 C 296.69 999.012 314.177 995.952 324.669 995.952 C 345.653 950.923 351.336 942.18 353.522 913.764 C 342.593 907.206 336.035 901.96 329.915 895.403 C 329.915 870.047 329.478 848.189 331.664 829.828 C 308.056 848.189 292.756 860.867 280.952 861.304 C 266.148 861.741 240.483 840.257 227.43 830.39 z "
       style="fill:#ffe9d1;fill-rule:evenodd;stroke:#000000;stroke-width:1.25;"
       id="path66" />
    <path
       d="M 232.864 833.325 C 242.044 862.615 237.354 869.904 241.17 874.856 C 251.208 889.571 283.127 929.325 282.264 941.743 C 282.107 950.297 274.048 959.758 283.575 963.164 C 292.78 966.018 298.425 958.368 305.434 951.36 C 311.554 945.677 333.85 951.798 344.342 951.798 C 346.527 946.988 351.336 937.371 353.522 913.764 C 342.593 907.206 336.035 901.96 329.915 895.403 C 329.915 870.047 329.478 848.189 331.664 829.828 C 308.056 848.189 292.756 860.867 280.952 861.304 C 269.148 861.741 244.667 842.942 232.864 833.325 z M 208.819 921.196 C 213.191 953.109 219.748 976.716 223.683 986.334 C 230.24 985.897 231.989 985.46 237.672 986.771 C 231.115 958.792 215.377 929.502 208.819 921.196 z "
       style="fill:#d9b696;fill-rule:evenodd;stroke-width:0.125;"
       id="path70" />
    <path
       d="M 186.993 904.567 C 185.15 864.332 181.465 853.889 176.858 841.296 C 172.25 828.704 173.479 820.411 172.865 813.961 C 178.086 837.918 185.15 842.525 188.529 866.175 C 191.907 889.824 192.522 895.046 192.829 902.11 C 190.986 902.724 189.757 903.339 186.993 904.567 z "
       style="fill:#876d3a;fill-rule:evenodd;stroke:#4f2f1a;stroke-width:1pt;"
       id="path172" />
    <path
       d="M 337.693 521.11 C 375.054 543.7 383.743 565.421 394.603 596.265 C 405.464 627.11 418.497 644.921 427.185 667.946 C 435.874 690.971 445.431 717.471 449.776 737.02 C 431.53 704.003 420.669 680.545 406.767 657.955 C 392.865 635.364 360.718 566.724 337.693 521.11 z "
       style="fill:#876d3a;fill-rule:evenodd;stroke:#684d29;stroke-width:1pt;"
       id="path414" />
    <path
       d="M 123.415 748.233 C 100.073 796.454 97.6156 812.425 97.0013 832.697 C 96.3871 852.968 100.687 871.089 109.287 886.446 "
       style="fill:none;fill-rule:evenodd;stroke:#684d29;stroke-width:1pt;"
       id="path180" />
    <path
       d="M 155.972 719.669 C 141.537 755.605 143.687 772.804 149.522 788.776 C 155.358 804.747 158.122 804.747 162.115 823.482 C 166.108 842.218 165.493 863.41 161.808 879.689 C 158.122 895.967 150.136 915.624 144.301 923.303 C 147.679 921.767 152.901 919.924 157.201 917.774 C 166.722 882.146 172.558 856.346 172.865 830.239 C 173.172 804.133 169.179 743.012 155.972 719.669 z "
       style="fill:#876d3a;fill-rule:evenodd;stroke:#684d29;stroke-width:1pt;"
       id="path173" />
    <path
       d="M 275.57 568.462 C 301.636 540.224 309.89 528.06 321.619 528.929 C 333.349 529.798 335.087 542.396 341.169 556.298 C 347.251 570.2 383.308 628.413 389.39 643.618 C 395.472 658.823 409.374 687.495 412.849 698.356 C 416.325 709.217 420.669 763.086 420.235 777.856 C 409.808 732.241 397.21 699.659 367.234 643.184 C 337.259 586.708 334.218 574.544 327.267 560.208 C 320.316 545.872 312.062 547.175 305.111 551.519 C 298.16 555.864 285.128 573.675 279.046 594.093 C 266.013 577.585 256.89 562.38 247.767 562.38 C 238.644 562.38 223.873 590.618 211.275 617.552 C 198.676 644.487 163.922 710.954 168.267 737.889 C 172.611 764.823 175.217 773.077 179.562 778.725 C 166.963 771.774 162.673 763.32 152.627 746.577 C 148.337 739.427 140.898 697.053 149.152 672.725 C 157.406 648.397 224.742 535.88 245.595 545.003 C 266.447 554.126 269.054 558.905 275.57 568.462 z "
       style="fill:#876d3a;fill-rule:evenodd;stroke:#684d29;stroke-width:1pt;"
       id="path415" />
    <path
       d="M 125.565 723.969 C 114.508 740.248 104.373 757.447 98.537 767.583 C 92.7014 777.719 82.2587 795.226 81.0301 826.247 C 79.8015 857.268 77.3444 879.689 99.4585 906.41 C 101.244 902.417 102.291 900.585 103.826 897.207 C 92.7693 877.55 85.9443 867.096 87.1729 839.146 C 88.4014 811.197 94.2371 782.019 124.03 740.248 C 124.951 732.876 125.258 728.269 125.565 723.969 z "
       style="fill:#d7aa51;fill-rule:evenodd;stroke:#8f602d;stroke-width:1pt;"
       id="path179" />
    <path
       d="M 120.958 786.011 C 110.208 827.475 111.437 840.989 85.33 878.767 C 59.2232 916.546 47.5519 936.203 51.5447 972.445 C 54.6161 969.681 58.3018 966.302 60.7589 965.074 C 60.1446 929.138 61.066 926.374 78.573 899.039 C 96.0799 871.703 110.515 856.346 122.494 806.59 C 122.494 804.44 122.187 801.983 123.108 797.99 C 121.88 793.383 121.265 790.311 120.958 786.011 z "
       style="fill:#d7aa51;fill-rule:evenodd;stroke:#8f602d;stroke-width:1pt;"
       id="path177" />
    <path
       d="M 364.192 789.321 C 381.911 823.493 385.708 837.243 387.395 868.04 C 389.083 898.837 388.239 906.431 387.395 916.978 C 366.302 905.587 361.192 896.228 330.395 896.65 C 329.973 867.962 329.177 854.587 331.036 829.275 C 352.177 812.587 359.552 799.025 364.192 789.321 z "
       style="fill:#5b4d29;fill-rule:evenodd;stroke:#472f1a;stroke-width:1pt;"
       id="path428" />
    <path
       d="M 356.598 806.446 C 352.802 855.384 345.208 873.103 342.677 881.118 C 340.145 889.134 339.723 897.571 339.723 897.571 M 355.333 822.478 C 356.598 863.4 350.692 876.056 351.114 885.759 C 351.536 895.462 351.958 899.259 351.958 899.259 "
       style="fill:none;fill-rule:evenodd;stroke:#472f1a;stroke-width:1pt;"
       id="path431" />
    <path
       d="M 385.88 767.431 C 395.583 804.978 399.757 841.019 403.427 861.712 C 406.65 877.511 401.739 903.899 411.02 929.212 C 400.895 924.993 398.786 922.884 393.302 919.931 C 392.458 868.884 391.614 836.821 384.02 815.306 C 376.427 793.79 373.098 787.634 368.036 781.306 C 369.395 777.806 370.083 776.337 370.942 774.806 C 376.427 773.962 382.083 770.806 385.88 767.431 z "
       style="fill:#5b4d29;fill-rule:evenodd;stroke:#472f1a;stroke-width:1pt;"
       id="path427" />
    <path
       d="M 389.411 763.43 C 395.317 780.728 403.427 829.228 403.427 871.837 C 403.427 914.446 406.38 917.821 410.176 928.79 C 413.13 929.212 415.661 930.055 418.193 931.321 C 413.551 918.665 410.599 906.431 409.755 886.181 C 415.661 912.759 424.099 929.212 430.427 936.806 C 433.802 939.337 437.176 940.602 444.348 943.134 C 428.317 922.884 414.427 885.754 412.286 869.728 C 406.517 825.413 403.63 782.805 392.661 759.18 C 391.395 760.821 390.504 762.134 389.411 763.43 z "
       style="fill:#5b4d29;fill-rule:evenodd;stroke:#472f1a;stroke-width:1pt;"
       id="path424" />
    <path
       d="M 190.062 718.439 C 193.436 704.377 199.624 702.97 208.342 699.314 C 217.061 695.658 231.124 697.908 237.03 700.439 C 242.936 702.97 243.78 704.939 248.561 711.127 C 249.967 714.783 251.373 721.252 250.53 725.752 C 245.187 732.221 239.567 736.485 219.311 737.845 C 204.738 738.838 200.468 735.033 194.562 729.408 C 192.03 726.877 190.905 722.658 190.062 718.439 z "
       style="fill:#ffffff;fill-rule:evenodd;stroke:#7f5555;stroke-width:1.25;stroke-opacity:0.25;"
       id="path93" />
    <path
       d="M 312.405 708.876 C 319.256 699.936 328.718 698.471 337.999 698.752 C 347.318 698.751 357.686 701.845 362.467 706.345 C 367.249 710.845 368.092 713.095 369.218 718.157 C 366.686 726.877 362.467 731.94 355.155 736.721 C 347.561 740.659 334.624 739.252 327.311 737.283 C 316.062 734.752 312.124 731.657 307.061 724.908 C 307.343 716.752 309.76 712.362 312.405 708.876 z "
       style="fill:#ffffff;fill-rule:evenodd;stroke:#7f5555;stroke-width:1.25;stroke-opacity:0.25;"
       id="path94" />
    <g
       id="g42">
      <ellipse
         cx="221.860306"
         cy="715.953918"
         rx="20.839041"
         ry="20.839041"
         transform="translate(-0.674682,0.674682)"
         style="fill:#3f3f3f;fill-rule:evenodd;stroke-width:0.625;"
         id="path34" />
      <ellipse
         cx="221.860306"
         cy="715.953918"
         rx="20.839041"
         ry="20.839041"
         transform="matrix(0.935248,0,0,0.935248,13.6912,47.034)"
         style="fill:#56554c;fill-rule:evenodd;stroke-width:0.628176;"
         id="path35" />
      <ellipse
         cx="221.860306"
         cy="715.953918"
         rx="20.839041"
         ry="20.839041"
         transform="matrix(0.530549,0,0,0.530549,103.478,336.78)"
         style="fill:#3d3d3d;fill-rule:evenodd;stroke-width:0.628176;"
         id="path36" />
      <ellipse
         cx="221.860306"
         cy="715.953918"
         rx="20.839041"
         ry="20.839041"
         transform="matrix(0.481985,0,0,0.481985,114.252,371.549)"
         style="fill-rule:evenodd;stroke-width:0.628176;"
         id="path37" />
      <ellipse
         cx="221.860306"
         cy="715.953918"
         rx="20.839041"
         ry="20.839041"
         transform="matrix(0.401045,0,0,0.401045,127.149,419.715)"
         style="fill:#ffffff;fill-opacity:0.5;fill-rule:evenodd;stroke-width:0.623371;"
         id="path38" />
      <ellipse
         cx="221.860306"
         cy="715.953918"
         rx="20.839041"
         ry="20.839041"
         transform="matrix(0.287729,0,0,0.287729,152.289,500.844)"
         style="fill:#ffffff;fill-rule:evenodd;stroke-width:0.623371;"
         id="path39" />
      <ellipse
         cx="221.860306"
         cy="715.953918"
         rx="20.839041"
         ry="20.839041"
         transform="matrix(0.206789,0,0,0.206789,183.74,578.359)"
         style="fill:#ffffff;fill-opacity:0.5;fill-rule:evenodd;stroke-width:0.623371;"
         id="path40" />
      <ellipse
         cx="221.860306"
         cy="715.953918"
         rx="20.839041"
         ry="20.839041"
         transform="matrix(0.142037,0,0,0.142037,198.106,624.718)"
         style="fill:#ffffff;fill-rule:evenodd;stroke-width:0.623371;"
         id="path41" />
    </g>
    <g
       transform="translate(118.069,1.34936)"
       id="g51">
      <ellipse
         cx="221.860306"
         cy="715.953918"
         rx="20.839041"
         ry="20.839041"
         transform="translate(-0.674682,0.674682)"
         style="fill:#3f3f3f;fill-rule:evenodd;stroke-width:0.625;"
         id="path52" />
      <ellipse
         cx="221.860306"
         cy="715.953918"
         rx="20.839041"
         ry="20.839041"
         transform="matrix(0.935248,0,0,0.935248,13.6912,47.034)"
         style="fill:#56554c;fill-rule:evenodd;stroke-width:0.628176;"
         id="path53" />
      <ellipse
         cx="221.860306"
         cy="715.953918"
         rx="20.839041"
         ry="20.839041"
         transform="matrix(0.530549,0,0,0.530549,103.478,336.78)"
         style="fill:#3d3d3d;fill-rule:evenodd;stroke-width:0.628176;"
         id="path54" />
      <ellipse
         cx="221.860306"
         cy="715.953918"
         rx="20.839041"
         ry="20.839041"
         transform="matrix(0.481985,0,0,0.481985,114.252,371.549)"
         style="fill-rule:evenodd;stroke-width:0.628176;"
         id="path55" />
      <ellipse
         cx="221.860306"
         cy="715.953918"
         rx="20.839041"
         ry="20.839041"
         transform="matrix(0.401045,0,0,0.401045,127.149,419.715)"
         style="fill:#ffffff;fill-opacity:0.5;fill-rule:evenodd;stroke-width:0.623371;"
         id="path56" />
      <ellipse
         cx="221.860306"
         cy="715.953918"
         rx="20.839041"
         ry="20.839041"
         transform="matrix(0.287729,0,0,0.287729,152.289,500.844)"
         style="fill:#ffffff;fill-rule:evenodd;stroke-width:0.623371;"
         id="path57" />
      <ellipse
         cx="221.860306"
         cy="715.953918"
         rx="20.839041"
         ry="20.839041"
         transform="matrix(0.206789,0,0,0.206789,183.74,578.359)"
         style="fill:#ffffff;fill-opacity:0.5;fill-rule:evenodd;stroke-width:0.623371;"
         id="path58" />
      <ellipse
         cx="221.860306"
         cy="715.953918"
         rx="20.839041"
         ry="20.839041"
         transform="matrix(0.142037,0,0,0.142037,198.106,624.718)"
         style="fill:#ffffff;fill-rule:evenodd;stroke-width:0.623371;"
         id="path59" />
    </g>
    <path
       d="M 311.138 710.738 C 314.888 706.276 318.563 702.526 325.651 700.426 C 332.739 698.325 341.064 698.588 350.252 700.688 C 359.439 702.788 364.895 709.613 366.733 712.501 C 368.57 715.388 369.414 718.538 369.414 720.901 C 372.039 719.851 371.777 717.751 373.877 717.226 C 375.977 716.701 377.815 717.751 380.702 717.751 C 377.29 715.388 373.614 714.601 374.927 713.026 C 376.239 711.451 379.684 710.921 381.521 710.396 C 374.696 709.871 371.558 709.596 369.695 707.251 C 368.325 705.742 370.224 704.626 371.537 703.838 C 364.974 703.838 365.477 702.254 360.227 699.629 C 354.977 697.004 347.008 694.613 338.87 694.088 C 330.733 693.826 323.738 694.387 315.338 696.225 C 319.276 696.75 320.063 697.013 321.113 697.538 C 315.076 700.163 310.52 706.539 309.207 709.426 L 311.138 710.738 z "
       style="fill-rule:evenodd;stroke-width:1pt;"
       id="path9" />
    <path
       d="M 320.036 734.789 C 331.567 738.164 337.499 739.109 343.942 738.726 C 354.942 738.553 360.255 732.258 361.942 730.008 C 362.786 731.133 362.786 730.57 363.911 731.414 C 360.676 734.93 357.301 737.672 362.715 739.887 C 351.377 740.294 351.958 741.539 344.223 740.976 C 333.828 740.246 328.192 739.008 320.598 736.476 C 320.317 735.914 320.317 735.07 320.036 734.789 z "
       style="fill-rule:evenodd;stroke-width:1pt;"
       id="path64" />
    <path
       d="M 189.599 720.113 C 192.224 710.926 195.636 706.989 202.199 702.788 C 207.937 699.345 216.637 697.538 226.612 698.325 C 236.587 699.113 241.837 702.263 248.662 711.713 C 250.5 710.926 250.762 710.401 252.337 710.138 C 244.987 703.051 246.304 702.521 239.216 698.583 C 248.404 701.996 252.862 705.676 255.487 707.776 C 252.469 704.364 246.44 699.217 240.5 694.988 C 232.147 693.691 227.106 693.322 220.166 693.582 C 212.733 693.87 208.454 694.649 201.927 696.474 C 193.5 698.738 188.549 702.263 185.136 702.263 C 187.499 703.838 189.336 705.413 187.236 708.301 C 185.136 711.188 183.823 712.501 181.198 713.551 C 185.136 715.126 187.499 716.176 183.561 718.538 C 179.623 720.901 178.573 720.901 178.048 721.426 C 185.136 721.163 188.024 721.688 189.599 720.113 z "
       style="fill-rule:evenodd;stroke-width:1pt;"
       id="path8" />
    <path
       d="M 194.317 730.008 C 194.036 732.258 197.692 735.351 197.692 736.476 C 200.786 738.023 204.231 738.586 202.017 742.664 C 206.784 741.871 209.896 740.485 214.286 740.414 C 224.661 739.965 228.348 738.726 239.598 735.633 C 238.755 735.07 238.192 735.07 237.911 734.507 C 228.067 736.757 221.598 737.883 213.723 737.602 C 205.848 737.321 200.223 733.664 196.005 730.288 C 194.88 730.288 193.755 730.008 194.317 730.008 z "
       style="fill-rule:evenodd;stroke-width:1pt;"
       id="path65" />
    <path
       d="M 270.502 588.623 C 257.914 570.441 254.367 561.023 246.675 561.722 C 238.983 562.421 218.004 600.183 208.214 623.26 C 198.424 646.336 182.34 667.315 178.844 723.258 C 200.522 660.322 206.815 653.329 213.808 640.742 C 220.801 628.155 237.584 581.302 245.976 577.806 C 254.367 574.309 263.509 585.826 270.502 588.623 z "
       style="fill:#d7aa51;fill-rule:evenodd;stroke:#8f602d;stroke-width:1.25;"
       id="path168" />
    <path
       d="M 285.136 591.092 C 292.129 566.617 301.919 547.037 315.206 548.435 C 328.492 549.834 342.478 598.085 352.967 617.665 C 363.457 637.246 380.939 665.217 389.331 687.595 C 369.051 659.623 357.863 649.134 347.373 620.463 C 342.714 608.039 339.681 601.582 336.184 593.19 C 336.884 601.582 337.583 605.777 335.485 612.77 C 327.094 595.987 320.8 586.197 316.604 576.407 C 316.604 599.484 326.394 633.05 326.394 652.63 C 315.206 612.071 305.416 592.491 303.318 577.106 C 294.926 584.099 291.43 587.596 285.136 591.092 z "
       style="fill:#d7aa51;fill-rule:evenodd;stroke:#8f602d;stroke-width:1.25;"
       id="path169" />
    <path
       d="M 282.825 734.935 C 283.162 748.091 283.162 754.163 283.162 756.862 C 283.162 759.561 283.499 762.26 286.535 762.26 C 289.571 762.26 291.596 760.573 291.596 758.886 C 291.596 757.199 287.547 759.223 286.873 748.766 C 286.198 738.308 286.873 732.236 285.861 732.236 C 284.849 732.236 283.837 733.248 282.825 734.935 z "
       style="fill:#9f7b70;fill-rule:evenodd;stroke-width:1pt;"
       id="path112" />
    <path
       d="M 266.97 789.584 C 268.653 787.138 285.859 787.055 296.908 788.234 C 295.896 790.932 292.945 791.271 282.825 791.608 C 272.704 791.946 268.656 791.946 266.97 789.584 z "
       transform="translate(0,4.00604)"
       style="fill:#6f534a;fill-rule:evenodd;stroke-width:1pt;"
       id="path113" />
    <path
       d="M 273.739 523.864 C 268.493 502.225 261.279 493.7 254.722 485.175 C 261.279 500.913 264.558 510.749 265.87 517.963 C 245.541 504.848 232.426 502.225 220.623 506.815 C 208.819 511.405 172.753 533.045 145.211 577.636 C 182.589 540.258 202.917 525.176 207.508 524.52 C 212.098 523.864 213.41 525.832 214.721 527.143 C 189.146 535.013 134.064 588.784 109.801 615.67 C 94.7183 636.654 80.2917 661.572 80.2917 683.212 C 94.7183 648.457 109.145 626.162 149.146 585.505 C 97.9971 649.113 95.3741 669.441 94.0625 726.492 C 102.587 681.245 109.801 660.261 117.67 645.834 C 112.424 664.851 111.112 672.72 111.768 681.245 C 122.916 649.769 126.85 634.687 139.309 619.604 C 136.686 627.473 135.375 630.096 134.719 633.375 C 159.638 597.964 175.376 586.817 189.147 575.669 C 202.917 564.521 208.163 556.652 213.41 552.062 C 202.262 567.8 164.884 607.801 148.49 635.998 C 132.096 664.195 128.817 675.343 126.85 693.049 C 124.883 710.754 121.604 735.017 148.49 781.575 C 133.408 732.394 130.129 725.836 137.342 672.064 C 137.342 736.984 141.932 741.575 162.917 782.231 C 147.178 684.524 151.54 678.349 181.278 628.785 C 205.871 588.453 232.426 552.062 242.263 550.75 C 252.099 549.439 263.247 556.652 271.772 565.833 C 264.558 542.225 254.066 536.979 246.197 529.11 C 261.935 538.291 264.558 541.57 269.148 546.16 C 264.558 533.045 261.935 530.422 258.001 525.176 C 267.837 531.078 269.148 533.045 275.05 536.324 C 284.231 527.143 305.871 510.094 315.707 509.438 C 325.543 508.782 324.887 507.471 331.445 508.782 C 326.855 503.536 323.576 502.225 314.395 503.536 C 305.215 504.848 292.1 511.405 284.231 520.586 C 294.067 508.126 295.379 506.159 297.346 498.946 C 286.198 514.028 281.608 515.34 273.739 523.864 z "
       style="fill:#d7aa51;fill-rule:evenodd;stroke:#8f602d;stroke-width:1.25;"
       id="path75" />
    <path
       d="M 280.774 546.324 C 289.955 520.749 310.283 512.225 324.054 510.257 C 337.825 508.29 364.711 514.192 383.728 533.865 C 402.744 553.537 409.301 564.685 421.761 600.096 C 401.433 565.996 379.793 531.897 354.874 524.684 C 381.104 537.144 406.83 584.495 423.073 609.932 C 441.585 638.923 458.483 661.736 476.844 703.049 C 444.057 648.621 440.122 651.9 432.909 640.097 C 425.696 628.293 413.892 612.555 406.023 594.194 C 411.269 607.965 417.171 619.768 420.45 626.981 C 402.089 598.784 396.843 600.096 386.351 571.898 C 391.597 594.194 392.909 600.752 396.843 611.243 C 379.137 592.882 372.58 582.39 361.432 562.062 C 350.284 541.734 348.973 533.865 341.104 524.684 C 353.563 553.537 375.602 599.625 385.695 618.457 C 408.61 664.185 419.638 665.765 430.786 714.947 C 409.801 673.634 400.121 670.261 395.531 659.769 C 390.476 647.491 389.629 643.375 382.416 629.604 C 385.695 643.375 385.039 647.31 386.35 652.556 C 366.023 617.145 351.596 590.259 341.759 566.652 C 331.923 543.045 329.348 532.908 322.087 531.897 C 314.963 530.997 303.726 542.39 289.299 554.193 C 295.856 539.111 308.316 531.242 318.152 525.34 C 295.201 536.488 289.954 539.767 280.774 546.324 z "
       style="fill:#d7aa51;fill-rule:evenodd;stroke:#8f602d;stroke-width:1.375;"
       id="path45" />
    <path
       d="M 521.022 1008.1 C 595.309 1037.21 651.784 1032 685.235 1026.78 C 718.686 1021.57 736.498 1018.96 745.621 1016.36 C 745.621 1025.91 745.621 1030.69 745.621 1036.34 C 729.981 1040.25 700.44 1048.5 681.76 1052.41 C 644.834 1052.85 568.374 1052.41 548.825 1052.41 C 539.702 1050.24 533.185 1047.63 528.407 1046.77 C 527.103 1037.21 525.366 1022 521.022 1008.1 z "
       style="fill:#5b4d29;fill-rule:evenodd;stroke:#4f2f1a;stroke-width:1pt;"
       id="path423" />
    <path
       d="M 125.872 720.591 L 125.872 720.591 C 120.958 793.383 119.423 777.411 124.337 806.59 C 129.251 835.768 138.465 856.653 137.544 879.382 C 136.622 902.11 136.622 909.174 126.794 930.674 C 133.551 927.91 137.237 926.067 140.922 924.531 C 155.051 887.367 153.822 853.889 148.601 831.468 C 143.379 809.047 132.937 808.125 132.015 745.776 C 128.33 734.719 126.794 728.269 125.872 720.591 z "
       style="fill:#d7aa51;fill-rule:evenodd;stroke:#8f602d;stroke-width:1pt;"
       id="path174" />
    <g
       id="g384">
      <path
         d="M 330.742 896.294 C 350.326 897.062 353.014 895.91 371.83 907.046 C 390.646 918.182 441.334 941.222 467.062 949.67 C 492.79 958.118 493.558 959.27 493.558 962.726 C 493.558 966.182 476.278 984.23 457.462 1001.89 C 438.646 1019.56 407.542 1043.75 392.95 1051.43 C 361.846 1051.43 314.998 1051.05 301.174 1051.05 C 313.846 1019.56 333.814 978.086 342.262 956.198 C 350.71 934.31 353.014 925.094 354.166 914.342 C 341.878 906.278 335.734 901.67 330.742 896.294 z "
         style="fill:#ffffff;fill-rule:evenodd;stroke-width:1pt;"
         id="path365" />
      <path
         d="M 330.742 896.294 C 350.326 897.062 353.014 895.91 371.83 907.046 C 390.646 918.182 441.334 941.222 467.062 949.67 C 492.79 958.118 493.558 959.27 493.558 962.726 C 493.558 966.182 472.821 975.393 447.862 995.746 C 427.807 1012.36 420.275 1009.9 364.15 1011.88 C 321.961 1013.38 327.67 1009.96 305.014 1041.45 C 317.686 1009.96 333.814 978.086 342.262 956.198 C 350.71 934.31 353.014 925.094 354.166 914.342 C 341.878 906.278 335.734 901.67 330.742 896.294 z "
         style="fill:#adabba;fill-rule:evenodd;stroke-width:1pt;"
         id="path366" />
      <path
         d="M 218.23 902.054 C 195.19 898.982 206.71 896.294 166.774 913.958 C 126.838 931.622 86.9025 947.366 75.7665 951.206 C 64.6305 955.046 57.7185 955.43 56.9505 958.886 C 56.1825 962.342 88.0545 995.749 106.486 1012.26 C 124.918 1028.77 140.278 1044.52 154.486 1052.2 C 167.542 1052.97 228.214 1052.2 247.03 1051.81 C 231.67 1015.72 227.062 997.285 220.918 976.166 C 214.774 955.046 207.478 922.79 207.478 913.574 C 212.086 907.43 214.774 904.742 218.23 902.054 z "
         style="fill:#ffffff;fill-rule:evenodd;stroke-width:1pt;"
         id="path367" />
      <path
         d="M 218.23 902.054 C 195.19 898.982 206.71 896.294 166.774 913.958 C 156.79 918.374 146.806 922.67 137.272 926.69 C 161.146 926.486 170.117 929.311 177.91 943.524 C 183.946 954.236 186.294 968.573 194.038 982.312 C 213.917 1017.96 220.15 1022.25 247.03 1051.81 C 231.67 1015.72 227.062 997.285 220.918 976.166 C 214.774 955.046 207.478 922.79 207.478 913.574 C 212.086 907.43 214.774 904.742 218.23 902.054 z "
         style="fill:#adabba;fill-rule:evenodd;stroke-width:1pt;"
         id="path368" />
      <path
         d="M 330.742 896.294 C 350.326 897.062 353.014 895.91 371.83 907.046 C 390.646 918.182 441.334 941.222 467.062 949.67 C 492.79 958.118 493.558 959.27 493.558 962.726 C 493.558 966.182 476.278 984.23 457.462 1001.89 C 438.646 1019.56 407.542 1043.75 392.95 1051.43 C 361.846 1051.43 314.998 1051.05 301.174 1051.05 C 313.846 1019.56 333.814 978.086 342.262 956.198 C 350.71 934.31 353.014 925.094 354.166 914.342 C 341.878 906.278 335.734 901.67 330.742 896.294 z "
         style="fill:none;fill-rule:evenodd;stroke:#000000;stroke-width:1pt;"
         id="path369" />
      <path
         d="M 218.23 902.054 C 195.19 898.982 206.71 896.294 166.774 913.958 C 126.838 931.622 86.9025 947.366 75.7665 951.206 C 64.6305 955.046 57.7185 955.43 56.9505 958.886 C 56.1825 962.342 88.0545 995.749 106.486 1012.26 C 124.918 1028.77 140.278 1044.52 154.486 1052.2 C 167.542 1052.97 228.214 1052.2 247.03 1051.81 C 231.67 1015.72 227.062 997.285 220.918 976.166 C 214.774 955.046 207.478 922.79 207.478 913.574 C 212.086 907.43 214.774 904.742 218.23 902.054 z "
         style="fill:none;fill-rule:evenodd;stroke:#000000;stroke-width:1pt;"
         id="path370" />
      <path
         d="M 10.4866 1052.2 C 24.3105 1019.17 40.4385 974.246 61.1745 965.03 C 88.0545 994.982 131.062 1036.84 154.486 1052.58 C 109.942 1052.2 53.4945 1051.81 10.4866 1052.2 z "
         style="fill:#203370;fill-rule:evenodd;stroke-width:1pt;"
         id="path371" />
      <path
         d="M 69.2385 1052.58 C 66.1665 1019.17 65.0145 1002.28 65.0145 983.846 C 71.9265 1020.33 80.3745 1040.29 86.1345 1051.81 C 79.9905 1052.58 75.7665 1052.58 69.2385 1052.58 z "
         style="fill:#1a2445;fill-rule:evenodd;stroke-width:1pt;"
         id="path372" />
      <path
         d="M 393.334 1051.43 C 438.262 1021.48 471.286 991.142 492.022 966.566 C 508.534 975.014 520.438 977.702 530.806 1052.2 C 487.414 1051.81 428.662 1051.81 393.334 1051.43 z "
         style="fill:#1a2445;fill-rule:evenodd;stroke-width:1pt;"
         id="path373" />
      <path
         d="M 496.63 1051.81 L 496.63 1051.81 C 486.646 1027.24 488.566 1021.09 488.566 1006.89 C 488.566 992.678 488.182 986.918 491.254 986.918 C 494.326 986.918 503.542 996.517 510.07 1017.64 C 516.598 1038.76 517.75 1045.29 516.214 1051.43 C 510.454 1052.2 503.926 1051.81 496.63 1051.81 z "
         style="fill:#203370;fill-rule:evenodd;stroke-width:1pt;"
         id="path374" />
      <path
         d="M 247.798 1052.2 C 233.974 1023.01 228.982 1003.81 224.374 987.302 C 239.35 986.918 240.886 988.454 248.182 994.214 C 255.478 999.973 264.694 1002.28 281.974 1000.36 C 299.254 998.437 314.23 996.133 324.598 996.133 C 315.382 1016.1 308.086 1034.15 301.558 1051.05 C 278.902 1051.43 262.774 1052.2 247.798 1052.2 z "
         style="fill:#ffffff;fill-rule:evenodd;stroke:#000000;stroke-width:1pt;"
         id="path375" />
      <path
         d="M 257.398 1051.81 C 252.406 1029.93 250.87 1018.02 247.03 1004.2 C 259.318 1024.17 266.614 1039.53 271.99 1050.66 C 266.998 1051.05 262.006 1050.66 257.398 1051.81 z "
         style="fill:#adabba;fill-rule:evenodd;stroke-width:1pt;"
         id="path376" />
      <path
         d="M 213.191 949.175 L 213.191 949.175 C 238.547 948.737 248.164 947.426 252.099 949.175 C 256.033 950.923 263.028 961.415 270.023 965.787 "
         style="fill:none;fill-rule:evenodd;stroke:#000000;stroke-width:1pt;"
         id="path377" />
      <path
         d="M 344.341 952.235 C 322.483 950.049 312.428 947.426 308.056 949.612 C 303.685 951.798 298.876 959.229 293.63 962.29 "
         style="fill:none;fill-rule:evenodd;stroke:#000000;stroke-width:1pt;"
         id="path378" />
      <path
         d="M 330.352 896.277 C 330.789 902.398 329.915 905.021 331.664 910.704 "
         style="fill:none;fill-rule:evenodd;stroke:#000000;stroke-width:1pt;"
         id="path379" />
      <path
         d="M 231.989 889.72 C 231.989 896.714 232.426 897.152 231.989 902.398 "
         style="fill:none;fill-rule:evenodd;stroke:#000000;stroke-width:1pt;"
         id="path380" />
      <path
         d="M 353.956 914.045 C 353.956 909.821 354.55 908.966 354.55 904.742 "
         style="fill-rule:evenodd;stroke:#000000;stroke-width:1pt;"
         id="path381" />
      <path
         d="M 10.4866 1052.2 C 24.3105 1019.17 40.4385 974.246 61.1745 965.03 C 88.0545 994.982 131.062 1036.84 154.486 1052.58 C 109.942 1052.2 53.4945 1051.81 10.4866 1052.2 z "
         style="fill:none;fill-rule:evenodd;stroke:#000000;stroke-width:1pt;"
         id="path382" />
      <path
         d="M 393.334 1051.43 C 438.262 1021.48 471.286 991.142 492.022 966.566 C 508.534 975.014 520.438 977.702 530.806 1052.2 C 487.414 1051.81 428.662 1051.81 393.334 1051.43 z "
         style="fill:none;fill-rule:evenodd;stroke:#000000;stroke-width:1pt;"
         id="path383" />
    </g>
    <path
       d="M 546.924 774.746 C 619.359 791.29 670.331 822.589 691.794 835.555 C 713.256 848.522 736.506 856.123 745.449 857.018 C 745.449 858.359 745.449 859.7 745.449 861.042 C 731.588 860.147 707.443 848.522 679.721 833.32 C 651.999 818.117 613.099 795.761 555.867 781.453 C 552.737 779.217 550.948 777.876 546.924 774.746 z "
       style="fill:#876d3a;fill-rule:evenodd;stroke:#684d29;stroke-width:1pt;"
       id="path417" />
    <path
       d="M 605.381 834.097 C 668.376 886.132 696.265 890.999 745.449 898.6 C 745.449 906.202 745.002 917.827 745.449 925.428 C 711.467 923.192 684.268 914.275 636.425 880.741 C 631.954 871.798 630.204 869.562 627.943 864.669 C 653.876 879.424 666.754 886.528 700.289 899.495 C 659.153 881.162 640.054 869.613 622.169 856.646 C 616.803 849.966 609.405 839.91 605.381 834.097 z "
       style="fill:#d7aa51;fill-rule:evenodd;stroke:#8f602d;stroke-width:1pt;"
       id="path418" />
    <path
       d="M 415.022 703.061 C 471.731 749.102 482.51 739.5 504.894 750.601 C 551.34 773.488 590.501 802.724 629.145 866.243 C 589.835 819.267 538.051 786.526 490.139 759.991 C 466.946 747.58 436.766 738.629 415.022 703.061 z "
       style="fill:#d7aa51;fill-rule:evenodd;stroke:#8f602d;stroke-width:1pt;"
       id="path419" />
    <path
       d="M 415.206 703.194 C 452.675 745.877 455.531 740.387 487.245 757.981 C 508.097 769.059 565.442 800.338 590.856 823.797 C 616.27 847.256 623.547 855.184 629.194 863.873 C 634.842 872.561 641.358 882.988 656.997 904.274 C 672.564 924.89 702.178 957.275 745.621 973.348 C 746.055 976.824 745.621 978.562 746.055 982.906 C 705.653 971.176 683.063 943.373 666.555 924.693 C 650.047 906.012 608.473 851.097 565.768 819.561 C 508.858 777.856 490.554 787.997 461.071 762.217 C 437.011 741.179 425.376 729.069 417.122 717.34 C 416.7 710.217 416.206 708.426 415.206 703.194 z "
       style="fill:#d7aa51;fill-rule:evenodd;stroke:#8f602d;stroke-width:1pt;"
       id="path413" />
    <path
       d="M 443.259 784.807 C 481.054 875.602 508.858 899.496 546.219 929.471 C 583.579 959.447 646.571 977.258 672.637 977.258 C 664.383 969.004 658.301 964.225 653.522 958.578 C 578.801 932.078 545.35 914.701 509.727 874.733 C 474.104 834.766 456.726 807.397 451.948 797.405 C 447.169 787.413 448.038 787.413 443.259 784.807 z "
       style="fill:#5b4d29;fill-rule:evenodd;stroke:#4f2f1a;stroke-width:1pt;"
       id="path421" />
    <path
       d="M 377.708 758.556 C 392.661 756.29 398.442 743.431 403.942 736.884 "
       transform="translate(-6.875,16.25)"
       style="fill:none;fill-rule:evenodd;stroke:#7f5f3f;stroke-width:1pt;"
       id="path108" />
    <path
       d="M 415.456 737.889 C 455.858 793.93 485.399 816.52 514.505 833.897 C 543.612 851.274 550.997 850.405 572.284 865.176 C 593.571 879.947 619.637 909.488 637.014 932.078 C 654.391 954.668 652.653 962.922 707.826 997.676 C 705.219 998.545 703.916 998.111 702.612 998.545 C 662.645 974.217 655.26 964.225 633.973 936.857 C 612.686 909.488 595.743 888.201 552.3 864.742 C 508.858 841.283 456.726 812.176 424.144 768.733 C 421.103 756.135 417.194 744.84 415.456 737.889 z "
       style="fill:#5b4d29;fill-rule:evenodd;stroke:#4f2f1a;stroke-width:1pt;"
       id="path420" />
    <path
       d="M 354.202 637.536 C 369.406 682.282 388.956 706.61 389.39 721.815 C 389.825 737.02 389.39 738.323 391.562 743.536 C 393.734 748.749 398.513 754.831 401.554 761.348 C 398.513 747.881 397.21 747.881 395.907 742.667 C 394.603 737.454 395.038 735.717 395.038 732.241 C 408.505 763.52 419.8 782.2 425.882 806.528 C 431.964 830.856 444.997 896.02 472.8 926.43 C 500.604 956.84 541.874 992.029 605.301 1000.28 C 668.727 1008.54 712.17 1002.46 746.055 998.98 C 745.186 997.676 745.186 996.808 745.186 995.07 C 676.547 999.414 623.112 995.07 594.006 986.381 C 564.899 977.693 512.333 955.103 484.964 910.356 C 457.595 865.61 436.308 807.397 431.095 784.372 C 425.882 761.348 415.021 722.249 404.161 701.831 C 393.3 681.413 364.628 654.044 354.202 637.536 z "
       style="fill:#5b4d29;fill-rule:evenodd;stroke:#4f2f1a;stroke-width:1pt;"
       id="path416" />
    <path
       d="M 46.6305 977.666 C 42.3305 965.688 42.9448 963.231 43.8662 952.481 C 44.7877 941.731 44.4805 928.831 65.0589 896.274 C 85.6372 863.718 91.1657 865.868 111.13 825.325 "
       style="fill:none;fill-rule:evenodd;stroke:#684d29;stroke-width:1pt;"
       id="path178" />
    <path
       d="M 131.401 649.642 C 117.273 685.27 117.273 695.712 120.037 732.876 "
       style="fill:none;fill-rule:evenodd;stroke:#684d29;stroke-width:1pt;"
       id="path181" />
    <path
       d="M 193.75 629.063 C 170.408 686.498 172.865 670.834 165.801 720.591 "
       style="fill:none;fill-rule:evenodd;stroke:#684d29;stroke-width:1pt;"
       id="path182" />
    <path
       d="M 165.493 674.52 C 159.043 701.855 159.658 700.012 159.351 721.819 "
       style="fill:none;fill-rule:evenodd;stroke:#684d29;stroke-width:1pt;"
       id="path183" />
    <path
       d="M 248.977 597.967 C 244.74 618.55 245.076 624.209 245.076 629.053 "
       style="fill:none;fill-rule:evenodd;stroke:#684d29;stroke-width:1pt;"
       id="path98" />
    <path
       d="M 241.107 613.707 C 237.475 620.577 236.37 623.584 235.159 627.217 "
       style="fill:none;fill-rule:evenodd;stroke:#684d29;stroke-width:1pt;"
       id="path99" />
    <path
       d="M 198.262 859.046 C 200.566 911.27 202.486 984.614 187.51 1045.67 C 200.95 1011.49 208.907 994.866 214.006 960.038 C 221.029 908.156 207.862 902.822 198.262 859.046 z "
       style="fill:#876d3a;fill-rule:evenodd;stroke:#422f1a;stroke-width:1pt;"
       id="path79" />
    <path
       d="M 192.118 807.59 C 191.734 854.822 194.422 869.03 201.334 893.99 C 208.246 918.95 210.934 943.142 205.942 996.518 C 219.766 946.214 216.987 918.881 209.782 898.982 C 200.859 874.337 194.806 852.134 192.118 807.59 z "
       style="fill:#876d3a;fill-rule:evenodd;stroke:#422f1a;stroke-width:1pt;"
       id="path78" />
    <path
       d="M 212.049 817.723 C 208.416 846.177 202.968 849.204 201.757 870.998 "
       style="fill:none;fill-rule:evenodd;stroke:#422f1a;stroke-width:1pt;"
       id="path100" />
    <path
       d="M 218.103 822.566 C 216.286 856.468 210.233 865.549 209.627 897.635 "
       style="fill:none;fill-rule:evenodd;stroke:#422f1a;stroke-width:1pt;"
       id="path101" />
    <path
       d="M 330.384 896.082 C 329.509 867.832 329.634 847.832 331.134 829.832 "
       style="fill:none;fill-rule:evenodd;stroke:#000000;stroke-width:1pt;"
       id="path109" />
    <path
       d="M 185.333 779.422 C 187.448 784.223 190.953 792.079 193.529 795.985 C 204.1 812.014 211.198 817.61 229.193 831.649 C 255.203 851.941 269.752 860.32 278.843 861.019 C 287.934 861.719 301.919 853.327 321.499 837.243 C 341.079 821.159 350.17 813.467 357.862 800.88 C 365.555 788.293 371.06 774.955 378.853 754.14 C 380.901 748.386 382.41 743.212 383.481 737.834 C 384.017 735.145 384.818 730.311 385.147 727.421 "
       style="fill:none;fill-rule:evenodd;stroke:#7f5f3f;stroke-width:1.25;"
       id="path107" />
    <path
       d="M 274.743 806.363 C 285.712 806.363 291.196 802.988 292.884 808.894 C 294.571 814.8 287.4 817.753 281.915 819.019 C 276.431 820.285 270.946 814.379 270.946 812.269 C 270.946 810.16 271.368 806.785 274.743 806.363 z "
       style="fill:#e6c8ad;fill-rule:evenodd;stroke-width:1pt;"
       id="path116" />
    <path
       d="M 273.899 808.472 C 277.274 807.207 282.759 806.363 285.29 807.207 C 287.821 808.05 284.868 808.894 281.493 809.316 C 278.118 809.738 276.009 808.894 273.899 808.472 z "
       style="fill:#6f534a;fill-rule:evenodd;stroke-width:1pt;"
       id="path117" />
  </g>
</svg>
