<?xml version="1.0" encoding="ISO-8859-1" standalone="no"?>
<!DOCTYPE svg PUBLIC "-//W3C//DTD SVG 20010904//EN"
    "http://www.w3.org/TR/2001/REC-SVG-20010904/DTD/svg10.dtd">
<svg xmlns="http://www.w3.org/2000/svg"
     xmlns:xlink="http://www.w3.org/1999/xlink">
    <!-- SVG content goes here -->

<text x="0" y="13" fill="red" text-anchor="start">Text</text>
<text x="25" y="13" fill="red" text-anchor="middle">Text</text>
<text x="50" y="13" fill="red" text-anchor="end">Text</text>
<text x="0" y="13" fill="red">
    <tspan>Line 1</tspan>
    <tspan x="0" dy="1em">Line 2</tspan>
</text>
<defs>
    <path id="textPath" d="M10 50 C10 0 90 0 90 50"/>
</defs>
<text fill="red">
    <textPath xlink:href="#textPath">Text on a Path</textPath>
</text>

<circle cx="25" cy="250" r="20" fill="red"/>
<ellipse cx="75" cy="250" rx="20" ry="10" fill="red"/>
<line x1="5" y1="205" x2="105" y2="235" stroke="red"/>
<path d="M5,155 C5,195 45,195 45,155" stroke="red" fill="none"/>
<polygon points="55,155 95,195 55,195 95,155" stroke="red" fill="none"/>
<polyline points="105,155 145,195 105,195 145,155" stroke="red" fill="none"/>
<rect x="5" y="85" width="40" height="40" fill="red"/>
<rect x="50" y="85" rx="5" ry="5" width="40" height="40" fill="red"/>

</svg>
