<?xml version="1.0" encoding="utf-8"?>

<!--
  $Id$
 
  Copyright 2007 Sun Microsystems, Inc. All rights reserved.
  SUN PROPRIETARY/CONFIDENTIAL. Use is subject to license terms.
-->

<!-- Generator: Adobe Illustrator 12.0.0, SVG Export Plug-In . SVG Version: 6.00 Build 51448)  -->
<!DOCTYPE svg PUBLIC "-//W3C//DTD SVG 1.1//EN" "http://www.w3.org/Graphics/SVG/1.1/DTD/svg11.dtd" [
	<!ENTITY ns_svg "http://www.w3.org/2000/svg">
	<!ENTITY ns_xlink "http://www.w3.org/1999/xlink">
]>
<svg  version="1.1" id="Layer_1" xmlns="&ns_svg;" xmlns:xlink="&ns_xlink;" width="949.612" height="417.728"
	 viewBox="0 0 949.612 417.728" overflow="visible" enable-background="new 0 0 949.612 417.728" xml:space="preserve">
<g>
	<path fill-rule="evenodd" clip-rule="evenodd" fill="#4D66A9" d="M545.752,113.213c1.377-1.377,2.3-2.297,2.759-3.215l0,0
		l10.103-38.577l0,0c1.836-6.892,5.054-14.238,5.054-22.051c0-2.292-1.841-4.131-3.677-5.969
		c-22.046-11.482-34.902-12.859-54.653-13.318c-50.981-0.918-87.268,34.907-87.727,73.484
		c-0.918,46.389,37.205,74.407,56.494,107.938c7.346,12.399,11.941,24.802,11.482,39.499c0,15.156-11.482,54.653-51.44,53.735
		c-20.21-0.459-39.5-14.238-39.038-48.687l0,0v-24.8l0,0c-0.461-2.295-0.461-4.59-2.292-6.431c-0.925-1.377-3.679-2.295-5.515-1.377
		c-3.669,1.836-4.597,5.972-5.969,9.644c-2.297,10.566-4.6,21.587-6.885,32.148c-0.459,0.923,0.913,0.923,0,0.923
		c-1.384,7.808-2.764,16.074-3.223,23.882c-0.459,4.59,2.764,8.726,6.887,11.479c15.164,7.813,34.453,13.779,56.035,14.238
		c51.899,0.918,94.155-44.551,95.073-89.097c0-5.513-0.459-10.566-0.918-15.158c-4.595-27.1-22.046-45.013-40.42-67.518
		c-11.023-14.241-33.525-33.53-32.607-58.792c0-20.667,16.992-43.171,47.764-43.171c40.879,0.916,34.448,45.01,34.907,64.758
		c0,2.297,0,4.133,1.836,5.054C541.622,113.672,543.917,114.134,545.752,113.213L545.752,113.213L545.752,113.213L545.752,113.213z"
		/>
	<path fill-rule="evenodd" clip-rule="evenodd" fill="#4D66A9" d="M740.953,232.63c-5.054,0-6.89,7.808-11.943,16.992
		c-10.103,15.615-26.182,36.284-33.984,36.284c-2.759,0-2.759-3.213-2.759-5.972c0-8.726,8.726-37.197,18.833-67.969
		c14.238-43.635,31.23-91.404,31.23-93.699c0-3.215-0.459-5.054-5.044-5.054c-3.682,0-8.735-0.459-16.084-0.459
		c-13.779,0-14.697,1.836-15.615,4.592c-6.89,12.4-16.538,53.279-36.284,88.645c-0.918,1.838-2.3,3.674-3.218,5.513
		c-26.177,43.63-59.707,77.619-74.399,77.619c-5.513,0-8.73-4.136-8.73-10.107c0-9.644,10.566-37.661,22.046-67.512
		c13.32-34.449,27.563-71.192,27.563-85.43c0-5.972-3.223-18.374-17.92-18.374c-39.946,0-73.481,64.763-73.481,72.112
		c0,2.297,1.377,4.133,4.131,4.133c5.054,0,8.267-10.564,21.128-28.018c7.349-11.023,16.997-19.751,21.587-19.751
		c3.677,0,4.136,2.756,4.136,5.054c0,6.431-12.861,37.205-25.264,70.274c-11.016,29.392-21.128,60.622-21.128,78.996
		c0,11.943,4.595,23.423,19.756,23.423c36.279,0,75.317-45.469,102.876-86.343c1.377-1.382,2.3-1.382,1.836,0.918
		c-5.972,16.533-13.779,48.682-13.779,68.433c0,8.267,1.377,17.91,14.697,17.91c31.689,0,73.486-62.92,73.486-77.617
		C744.625,234.93,743.707,232.63,740.953,232.63L740.953,232.63L740.953,232.63L740.953,232.63z"/>
	<path fill-rule="evenodd" clip-rule="evenodd" fill="#4D66A9" d="M948.55,235.848c-0.918-1.841-2.754-2.759-4.59-2.759
		c-1.377,0-2.759,1.377-3.218,2.759c-8.726,15.156-27.559,48.228-40.415,49.141c-2.3,0-3.677-2.295-3.677-4.595
		c0-7.808,12.402-37.656,24.341-68.889c11.025-28.477,21.592-58.331,21.592-73.948c0-21.587-11.943-29.397-26.182-29.397
		c-39.961,0-82.217,63.384-96.455,84.514c-0.918,1.836-1.377,1.377-0.918-0.461c6.89-25.259,15.156-47.766,15.156-64.761
		c0-10.105-4.59-20.669-17.91-20.669c-28.013,0-68.433,55.117-68.433,68.896c0,2.756,0.918,4.592,2.754,4.592
		c5.054,0,9.189-9.185,16.538-19.29c9.185-11.484,20.669-26.182,28.013-26.182c0.923,0,2.3,0.918,2.3,5.054
		c0,8.726-9.185,38.582-20.21,71.651c-10.562,32.15-22.505,67.512-29.854,90.939c-1.836,5.508,1.836,6.89,17.451,6.89
		c11.03,0,16.074,1.377,18.374-7.354c7.808-28.936,22.505-61.543,39.038-90.476c1.382-3.216,3.213-5.972,5.054-9.185
		c16.992-29.856,52.817-72.573,73.027-72.573c4.59,0,7.349,3.677,7.349,10.566c0,10.103-12.861,39.5-25.723,71.192
		c-12.861,31.691-26.182,65.676-25.264,84.509c0.459,10.562,4.136,18.369,17.915,18.369c31.23,0,58.33-43.174,71.191-66.138
		C948.091,244.573,951.304,240.438,948.55,235.848L948.55,235.848L948.55,235.848L948.55,235.848z"/>
	<path fill-rule="evenodd" clip-rule="evenodd" fill="#4D66A9" d="M50.638,197.266c-11.482,11.941-30.774,11.941-42.715,0
		c-10.564-11.943-10.564-31.233,0-42.715l0,0l70.273-70.273l18.372,18.831l-70.273,70.735l5.054,5.051l0,0l70.732-70.735
		l18.828,18.833L50.638,197.266L50.638,197.266L50.638,197.266L50.638,197.266z"/>
	<path fill-rule="evenodd" clip-rule="evenodd" fill="#4D66A9" d="M105.296,153.633c11.941-11.943,30.771-11.943,42.712,0
		c11.943,11.941,11.943,31.23,0,42.715l0,0l-69.812,70.271l-18.831-18.833l70.271-70.73l-5.051-5.051l0,0l-70.732,70.273
		l-18.372-18.374L105.296,153.633L105.296,153.633L105.296,153.633L105.296,153.633z"/>
	<path fill-rule="evenodd" clip-rule="evenodd" fill="#4D66A9" d="M196.231,299.227c11.943,11.484,11.943,30.771,0,42.256
		c-11.941,11.484-31.228,11.484-42.712,0l0,0l-70.271-69.814l18.833-18.828l70.732,70.732l5.046-5.513l0,0l-70.728-70.273
		l18.831-18.828L196.231,299.227L196.231,299.227L196.231,299.227L196.231,299.227z"/>
	<path fill-rule="evenodd" clip-rule="evenodd" fill="#4D66A9" d="M152.603,244.573c-11.943-11.943-11.943-31.23,0-42.715
		c11.941-11.941,30.769-11.941,42.71,0l0,0l70.273,69.81l-18.831,18.833l-70.73-70.732l-5.051,5.513l0,0l70.269,70.269
		l-18.372,18.833L152.603,244.573L152.603,244.573L152.603,244.573L152.603,244.573z"/>
	<path fill-rule="evenodd" clip-rule="evenodd" fill="#4D66A9" d="M243.541,197.266c-11.941,11.941-31.226,11.941-42.715,0
		c-11.943-11.943-11.943-31.233,0-42.715l0,0l69.812-70.273l18.833,18.831l-70.732,70.735l5.51,5.051l0,0l70.732-70.735
		l18.374,18.833L243.541,197.266L243.541,197.266L243.541,197.266L243.541,197.266z"/>
	<path fill-rule="evenodd" clip-rule="evenodd" fill="#4D66A9" d="M298.204,153.633c11.475-11.943,30.764-11.943,42.708,0
		c11.941,11.941,11.941,30.771,0,42.715l0,0l-70.273,70.271l-18.831-18.833l70.732-70.73l-5.046-5.051l0,0l-70.737,70.273
		l-18.833-18.374L298.204,153.633L298.204,153.633L298.204,153.633L298.204,153.633z"/>
	<path fill-rule="evenodd" clip-rule="evenodd" fill="#4D66A9" d="M196.231,106.324c11.943,11.943,11.943,30.774,0,42.715
		c-11.941,11.943-31.228,11.943-42.712,0l0,0L83.248,79.224l18.833-18.828l70.732,70.271l5.046-5.051l0,0l-70.728-70.73
		l18.831-18.831L196.231,106.324L196.231,106.324L196.231,106.324L196.231,106.324z"/>
	<path fill-rule="evenodd" clip-rule="evenodd" fill="#4D66A9" d="M152.603,51.67c-11.943-11.482-11.943-30.774,0-42.715
		c11.941-11.941,30.769-11.941,42.71,0l0,0l70.273,70.269l-18.831,18.374l-70.73-70.271l-5.051,5.051l0,0l70.269,70.73
		l-18.372,18.831L152.603,51.67L152.603,51.67L152.603,51.67L152.603,51.67z"/>
	<path fill-rule="evenodd" clip-rule="evenodd" fill="#4D66A9" d="M442.872,396.141v-27.1l0,0c0-5.972-1.831-9.644-7.349-9.644
		c-6.431,0-12.4,6.426-12.4,16.533l0,0v20.21h-7.808v-27.1l0,0c0-5.513-0.92-9.644-6.89-9.644c-6.89,0-12.402,6.89-12.402,16.533
		l0,0v20.21h-7.808v-42.256h7.808l0,0c0,2.295-0.459,5.972-0.918,8.726l0,0l0,0l0,0c2.756-5.972,8.274-9.644,15.615-9.644
		c9.187,0,11.489,5.967,11.941,9.644c1.838-4.136,6.431-9.644,14.7-9.644c8.267,0,13.325,4.131,13.325,13.779l0,0v29.395H442.872
		L442.872,396.141L442.872,396.141z"/>
	<path fill-rule="evenodd" clip-rule="evenodd" fill="#4D66A9" d="M509.927,396.6c-10.103,0-18.828-4.595-18.828-20.21
		c0-13.779,7.354-23.423,21.587-23.423c3.213,0,6.89,0.459,9.644,1.377l0,0l-0.918,6.89l0,0c-2.754-0.918-5.972-1.836-9.185-1.836
		c-8.267,0-12.861,6.426-12.861,16.074c0,8.267,3.213,14.697,12.402,14.697c3.672,0,7.344-0.918,10.103-2.295l0,0l0.918,6.89l0,0
		C519.576,395.682,514.981,396.6,509.927,396.6L509.927,396.6L509.927,396.6L509.927,396.6z"/>
	<path fill-rule="evenodd" clip-rule="evenodd" fill="#4D66A9" d="M556.319,360.315c-9.639-1.382-13.779,5.049-13.779,18.828l0,0
		v16.997h-7.808v-42.256h7.349l0,0c0,2.295,0,6.431-0.918,10.103l0,0h0.459l0,0c1.836-5.972,5.967-11.943,14.697-11.021l0,0V360.315
		L556.319,360.315L556.319,360.315z"/>
	<path fill-rule="evenodd" clip-rule="evenodd" fill="#4D66A9" d="M584.8,352.967c-13.325,0-21.592,9.644-21.592,22.046l0,0v0.459
		l0,0c0,14.697,7.808,21.587,19.746,21.587c12.397,0,21.128-9.644,21.587-22.046c0-0.459,0-0.459,0-0.918
		C604.542,358.934,595.816,352.967,584.8,352.967L584.8,352.967L584.8,352.967L584.8,352.967z M583.877,390.628
		c-7.813,0-12.402-5.972-12.402-15.615l0,0v-0.459l0,0c0-10.566,5.972-15.156,12.402-15.156c8.262,0,12.397,5.508,12.397,15.156l0,0
		v0.459l0,0C596.275,385.574,590.308,390.628,583.877,390.628L583.877,390.628L583.877,390.628L583.877,390.628z"/>
	<path fill-rule="evenodd" clip-rule="evenodd" fill="#4D66A9" d="M624.751,397.059c-3.218,0-6.431-0.459-9.189-0.918l0,0
		l0.459-6.89l0,0c2.759,0.918,5.972,1.377,9.648,1.377c5.513,0,9.644-2.295,9.644-6.431c0-9.185-20.21-3.672-20.21-18.374
		c0-7.349,5.972-12.856,17.461-12.856c2.29,0,5.508,0.459,8.262,0.918l0,0v6.431l0,0c-2.754-0.918-5.972-1.382-9.185-1.382
		c-5.513,0-8.721,2.3-8.721,5.972c0,9.189,20.659,4.136,20.659,18.374C643.58,391.087,636.69,397.059,624.751,397.059
		L624.751,397.059L624.751,397.059L624.751,397.059z"/>
	<path fill-rule="evenodd" clip-rule="evenodd" fill="#4D66A9" d="M672.056,400.271c-5.054,13.32-9.185,17.456-18.828,17.456
		c-1.831,0-4.136,0-5.972-0.459l0,0l0.918-6.89l0,0c1.836,0.459,3.677,0.918,5.513,0.918c5.049,0,7.354-2.295,10.562-10.566l0,0
		l1.836-4.59l-16.533-42.256h9.185l8.267,22.046l0,0c1.382,3.672,2.3,6.89,3.218,10.103l0,0l0,0l0,0
		c0.918-2.754,2.754-8.267,4.595-12.856l0,0l6.89-19.292h8.726L672.056,400.271L672.056,400.271L672.056,400.271z"/>
	<path fill-rule="evenodd" clip-rule="evenodd" fill="#4D66A9" d="M706.504,397.059c-3.213,0-6.431-0.459-9.185-0.918l0,0
		l0.459-6.89l0,0c2.295,0.918,5.972,1.377,9.185,1.377c5.972,0,10.103-2.295,10.103-6.431c0-9.185-20.664-3.672-20.664-18.374
		c0-7.349,6.426-12.856,17.91-12.856c2.295,0,5.513,0.459,8.267,0.918l0,0l-0.459,6.431l0,0c-2.754-0.918-5.513-1.382-8.726-1.382
		c-5.513,0-8.726,2.3-8.726,5.972c0,9.189,20.669,4.136,20.669,18.374C725.337,391.087,717.989,397.059,706.504,397.059
		L706.504,397.059L706.504,397.059L706.504,397.059z"/>
	<path fill-rule="evenodd" clip-rule="evenodd" fill="#4D66A9" d="M751.514,397.059c-8.726,0-11.479-3.677-11.479-12.861l0,0
		v-24.341h-9.189v-5.972h9.189v-13.779l7.808-2.3v16.079h12.402v5.972h-12.402v21.587l0,0c0,6.89,1.377,8.726,6.431,8.726
		c1.836,0,4.131-0.459,5.972-0.459l0,0v6.431l0,0C757.486,396.6,754.273,397.059,751.514,397.059L751.514,397.059L751.514,397.059
		L751.514,397.059z"/>
	<path fill-rule="evenodd" clip-rule="evenodd" fill="#4D66A9" d="M805.713,370.877c0-2.754-0.464-5.054-0.923-7.349
		c-2.295-5.972-7.349-10.562-16.528-10.562c-8.267,0-13.779,4.131-16.997,10.562c-1.377,3.218-2.295,7.349-2.295,11.484
		c0,15.156,7.349,22.046,20.669,22.046c5.513,0,10.562-0.918,14.702-2.754l0,0l-0.928-6.431l0,0
		c-3.213,1.836-8.262,2.754-12.397,2.754c-9.648,0-14.238-4.595-13.779-16.074l0,0h28.477l0,0
		C805.713,373.177,805.713,371.795,805.713,370.877L805.713,370.877L805.713,370.877L805.713,370.877z M777.237,369.041
		c0.459-1.836,0.918-3.677,1.836-5.513c1.836-3.213,5.054-5.054,9.189-5.054c4.126,0,6.89,1.841,8.721,5.054
		c0.459,1.836,0.923,3.677,0.923,5.513l0,0H777.237L777.237,369.041L777.237,369.041z"/>
	<path fill-rule="evenodd" clip-rule="evenodd" fill="#4D66A9" d="M872.31,396.141v-27.1l0,0c0-5.972-1.382-9.644-7.354-9.644
		c-5.967,0-11.938,6.426-11.938,16.533l0,0v20.21h-8.267v-27.1l0,0c0-5.513-0.918-9.644-6.89-9.644
		c-6.89,0-12.402,6.89-12.402,16.533l0,0v20.21h-7.808v-42.256h7.808l0,0c0,2.295-0.459,5.972-0.918,8.726l0,0H825l0,0
		c2.3-5.972,7.808-9.644,15.156-9.644c9.185,0,11.484,5.967,11.948,9.644c1.831-4.136,6.426-9.644,15.151-9.644
		c8.267,0,12.861,4.131,12.861,13.779l0,0v29.395H872.31L872.31,396.141L872.31,396.141z"/>
	<path fill-rule="evenodd" clip-rule="evenodd" fill="#4D66A9" d="M901.705,397.059c-3.218,0-6.431-0.459-9.189-0.918l0,0
		l0.459-6.89l0,0c2.759,0.918,5.972,1.377,9.648,1.377c5.513,0,9.644-2.295,9.644-6.431c0-9.185-20.21-3.672-20.21-18.374
		c0-7.349,5.972-12.856,17.461-12.856c2.29,0,5.508,0.459,8.262,0.918l0,0v6.431l0,0c-2.754-0.918-5.972-1.382-9.185-1.382
		c-5.513,0-8.726,2.3-8.726,5.972c0,9.189,20.664,4.136,20.664,18.374C920.533,391.087,913.643,397.059,901.705,397.059
		L901.705,397.059L901.705,397.059L901.705,397.059z"/>
	<path fill-rule="evenodd" clip-rule="evenodd" fill="#4D66A9" d="M472.725,346.536c3.215,0,5.513-2.3,5.513-5.054
		s-2.298-4.595-5.513-4.595c-2.749,0-5.051,1.841-5.051,4.595C467.674,344.695,469.976,346.536,472.725,346.536L472.725,346.536
		L472.725,346.536L472.725,346.536z"/>
	<polygon fill-rule="evenodd" clip-rule="evenodd" fill="#4D66A9" points="462.623,353.426 462.623,359.397 469.053,359.397 
		469.053,396.141 476.858,396.141 476.858,353.885 462.623,353.426 462.623,353.426 	"/>
</g>
</svg>
